<mxfile host="app.diagrams.net" modified="2023-11-06T03:54:50.645Z" agent="Mozilla/5.0 (Windows NT 10.0; Win64; x64) AppleWebKit/537.36 (KHTML, like Gecko) Chrome/119.0.0.0 Safari/537.36" version="22.0.8" etag="n7W4z2dVcfnCr4wP7Dbw" type="github">
  <diagram name="Page-1" id="nSmZM5-gxkE3H43HPMYe">
    <mxGraphModel>
      <root>
        <mxCell id="0" />
        <mxCell id="1" parent="0" />
      </root>
    </mxGraphModel>
  </diagram>
</mxfile>
